<svg width="54" height="41" viewBox="0 0 54 41" fill="none" xmlns="http://www.w3.org/2000/svg">
<path d="M36.402 10.6856C36.402 5.70144 32.1932 1.66095 27.0013 1.66095C21.8094 1.66095 17.6006 5.70144 17.6006 10.6856V16.7021C17.6006 21.6863 21.8094 25.7268 27.0013 25.7268C32.1932 25.7268 36.402 21.6863 36.402 16.7021V10.6856Z" stroke="white" stroke-width="3.00823" stroke-linecap="round" stroke-linejoin="round"/>
<path d="M26.9996 25.7271V31.7435M20.7324 31.7435H33.2667" stroke="white" stroke-width="3.00823" stroke-linecap="round" stroke-linejoin="round"/>
<path d="M27.0011 15.9502C29.5971 15.9502 31.7015 13.9299 31.7015 11.4378C31.7015 8.94572 29.5971 6.92548 27.0011 6.92548C24.4052 6.92548 22.3008 8.94572 22.3008 11.4378C22.3008 13.9299 24.4052 15.9502 27.0011 15.9502Z" fill="#012B45" stroke="white" stroke-width="3.00823" stroke-linecap="round" stroke-linejoin="round"/>
<path d="M27.0014 21.9661C27.8667 21.9661 28.5681 21.2927 28.5681 20.462C28.5681 19.6313 27.8667 18.9579 27.0014 18.9579C26.136 18.9579 25.4346 19.6313 25.4346 20.462C25.4346 21.2927 26.136 21.9661 27.0014 21.9661Z" fill="#EA373A"/>
<path d="M53.8257 2.25499L39.3415 37.0459C38.9369 38.0199 38.2447 38.8535 37.3535 39.4401C36.4623 40.0266 35.4126 40.3393 34.3388 40.3382H19.7002C18.6273 40.3392 17.5785 40.027 16.6878 39.4413C15.7971 38.8556 15.1049 38.0231 14.6998 37.0502L0.173095 2.2528C0.145969 2.18765 0.135598 2.11697 0.142892 2.04697C0.150187 1.97698 0.174924 1.90981 0.214931 1.85136C0.254937 1.79292 0.308988 1.745 0.372335 1.7118C0.435681 1.6786 0.506384 1.66114 0.578231 1.66097H15.2392C15.4183 1.65985 15.5933 1.71267 15.7407 1.81226C15.888 1.91186 16.0005 2.05341 16.0629 2.21773L23.0126 20.3706C24.424 24.0571 29.6418 24.0502 31.0435 20.36L37.9336 2.21992C37.9955 2.05554 38.1075 1.91377 38.2545 1.81379C38.4014 1.71382 38.5761 1.66047 38.755 1.66097H53.4205C53.7317 1.66097 53.9443 1.97223 53.8257 2.25499Z" fill="white"/>
</svg>
